%TF.GenerationSoftware,KiCad,Pcbnew,(5.1.9)-1*%
%TF.CreationDate,2021-05-08T00:28:14+09:00*%
%TF.ProjectId,EncKiboard_V2,456e634b-6962-46f6-9172-645f56322e6b,rev?*%
%TF.SameCoordinates,Original*%
%TF.FileFunction,Soldermask,Bot*%
%TF.FilePolarity,Negative*%
%FSLAX46Y46*%
G04 Gerber Fmt 4.6, Leading zero omitted, Abs format (unit mm)*
G04 Created by KiCad (PCBNEW (5.1.9)-1) date 2021-05-08 00:28:14*
%MOMM*%
%LPD*%
G01*
G04 APERTURE LIST*
%ADD10C,3.200000*%
%ADD11C,1.690600*%
%ADD12C,2.200000*%
%ADD13C,1.750000*%
%ADD14C,4.000000*%
%ADD15C,1.600000*%
%ADD16R,1.600000X1.600000*%
%ADD17R,2.000000X2.000000*%
%ADD18C,2.000000*%
%ADD19R,3.200000X2.000000*%
%ADD20C,1.800000*%
%ADD21R,1.800000X1.800000*%
G04 APERTURE END LIST*
D10*
%TO.C,M3*%
X110490000Y-151130000D03*
%TD*%
%TO.C,M3*%
X196850000Y-151130000D03*
%TD*%
%TO.C,M3*%
X196850000Y-64770000D03*
%TD*%
%TO.C,M3*%
X110490000Y-64770000D03*
%TD*%
D11*
%TO.C,U12*%
X185420000Y-133350000D03*
X187960000Y-133350000D03*
D12*
X184150000Y-143510000D03*
X190500000Y-140970000D03*
D13*
X181610000Y-138430000D03*
X191770000Y-138430000D03*
D14*
X186690000Y-138430000D03*
%TD*%
D11*
%TO.C,U11*%
X185420000Y-113030000D03*
X187960000Y-113030000D03*
D12*
X184150000Y-123190000D03*
X190500000Y-120650000D03*
D13*
X181610000Y-118110000D03*
X191770000Y-118110000D03*
D14*
X186690000Y-118110000D03*
%TD*%
D11*
%TO.C,U10*%
X185420000Y-92710000D03*
X187960000Y-92710000D03*
D12*
X184150000Y-102870000D03*
X190500000Y-100330000D03*
D13*
X181610000Y-97790000D03*
X191770000Y-97790000D03*
D14*
X186690000Y-97790000D03*
%TD*%
D11*
%TO.C,U9*%
X185420000Y-72390000D03*
X187960000Y-72390000D03*
D12*
X184150000Y-82550000D03*
X190500000Y-80010000D03*
D13*
X181610000Y-77470000D03*
X191770000Y-77470000D03*
D14*
X186690000Y-77470000D03*
%TD*%
D11*
%TO.C,U8*%
X165100000Y-133350000D03*
X167640000Y-133350000D03*
D12*
X163830000Y-143510000D03*
X170180000Y-140970000D03*
D13*
X161290000Y-138430000D03*
X171450000Y-138430000D03*
D14*
X166370000Y-138430000D03*
%TD*%
D11*
%TO.C,U7*%
X165100000Y-113030000D03*
X167640000Y-113030000D03*
D12*
X163830000Y-123190000D03*
X170180000Y-120650000D03*
D13*
X161290000Y-118110000D03*
X171450000Y-118110000D03*
D14*
X166370000Y-118110000D03*
%TD*%
D11*
%TO.C,U6*%
X165100000Y-92710000D03*
X167640000Y-92710000D03*
D12*
X163830000Y-102870000D03*
X170180000Y-100330000D03*
D13*
X161290000Y-97790000D03*
X171450000Y-97790000D03*
D14*
X166370000Y-97790000D03*
%TD*%
D11*
%TO.C,U5*%
X165100000Y-72390000D03*
X167640000Y-72390000D03*
D12*
X163830000Y-82550000D03*
X170180000Y-80010000D03*
D13*
X161290000Y-77470000D03*
X171450000Y-77470000D03*
D14*
X166370000Y-77470000D03*
%TD*%
D11*
%TO.C,U4*%
X144780000Y-133350000D03*
X147320000Y-133350000D03*
D12*
X143510000Y-143510000D03*
X149860000Y-140970000D03*
D13*
X140970000Y-138430000D03*
X151130000Y-138430000D03*
D14*
X146050000Y-138430000D03*
%TD*%
D11*
%TO.C,U3*%
X144780000Y-113030000D03*
X147320000Y-113030000D03*
D12*
X143510000Y-123190000D03*
X149860000Y-120650000D03*
D13*
X140970000Y-118110000D03*
X151130000Y-118110000D03*
D14*
X146050000Y-118110000D03*
%TD*%
D11*
%TO.C,U2*%
X144780000Y-92710000D03*
X147320000Y-92710000D03*
D12*
X143510000Y-102870000D03*
X149860000Y-100330000D03*
D13*
X140970000Y-97790000D03*
X151130000Y-97790000D03*
D14*
X146050000Y-97790000D03*
%TD*%
D11*
%TO.C,U1*%
X144780000Y-72390000D03*
X147320000Y-72390000D03*
D12*
X143510000Y-82550000D03*
X149860000Y-80010000D03*
D13*
X140970000Y-77470000D03*
X151130000Y-77470000D03*
D14*
X146050000Y-77470000D03*
%TD*%
D15*
%TO.C,U0*%
X127000000Y-69850000D03*
X127000000Y-72390000D03*
X127000000Y-74930000D03*
X127000000Y-77470000D03*
X127000000Y-80010000D03*
X127000000Y-82550000D03*
X127000000Y-85090000D03*
X127000000Y-87630000D03*
X127000000Y-90170000D03*
X127000000Y-92710000D03*
X127000000Y-95250000D03*
X127000000Y-97790000D03*
X111760000Y-97790000D03*
X111760000Y-95250000D03*
X111760000Y-92710000D03*
X111760000Y-90170000D03*
X111760000Y-87630000D03*
X111760000Y-85090000D03*
X111760000Y-82550000D03*
X111760000Y-80010000D03*
X111760000Y-77470000D03*
X111760000Y-74930000D03*
X111760000Y-72390000D03*
D16*
X111760000Y-69850000D03*
%TD*%
D17*
%TO.C,SW1*%
X114300000Y-133350000D03*
D18*
X114300000Y-135850000D03*
X114300000Y-138350000D03*
D19*
X121800000Y-130250000D03*
X121800000Y-141450000D03*
D18*
X128800000Y-133350000D03*
X128800000Y-138350000D03*
%TD*%
D20*
%TO.C,D2*%
X114300000Y-146050000D03*
D21*
X116840000Y-146050000D03*
%TD*%
D20*
%TO.C,D1*%
X125730000Y-146050000D03*
D21*
X128270000Y-146050000D03*
%TD*%
M02*
