%TF.GenerationSoftware,KiCad,Pcbnew,(5.1.9)-1*%
%TF.CreationDate,2021-05-08T00:28:14+09:00*%
%TF.ProjectId,EncKiboard_V2,456e634b-6962-46f6-9172-645f56322e6b,rev?*%
%TF.SameCoordinates,Original*%
%TF.FileFunction,Soldermask,Top*%
%TF.FilePolarity,Negative*%
%FSLAX46Y46*%
G04 Gerber Fmt 4.6, Leading zero omitted, Abs format (unit mm)*
G04 Created by KiCad (PCBNEW (5.1.9)-1) date 2021-05-08 00:28:14*
%MOMM*%
%LPD*%
G01*
G04 APERTURE LIST*
%ADD10C,3.200000*%
%ADD11C,1.690600*%
%ADD12C,2.200000*%
%ADD13C,1.750000*%
%ADD14C,4.000000*%
%ADD15C,1.600000*%
%ADD16R,1.600000X1.600000*%
%ADD17R,2.000000X2.000000*%
%ADD18C,2.000000*%
%ADD19R,3.200000X2.000000*%
%ADD20R,2.700000X3.500000*%
%ADD21C,1.800000*%
%ADD22R,1.800000X1.800000*%
G04 APERTURE END LIST*
D10*
%TO.C,M3*%
X110490000Y-151130000D03*
%TD*%
%TO.C,M3*%
X196850000Y-151130000D03*
%TD*%
%TO.C,M3*%
X196850000Y-64770000D03*
%TD*%
%TO.C,M3*%
X110490000Y-64770000D03*
%TD*%
D11*
%TO.C,U12*%
X185420000Y-133350000D03*
X187960000Y-133350000D03*
D12*
X184150000Y-143510000D03*
X190500000Y-140970000D03*
D13*
X181610000Y-138430000D03*
X191770000Y-138430000D03*
D14*
X186690000Y-138430000D03*
%TD*%
D11*
%TO.C,U11*%
X185420000Y-113030000D03*
X187960000Y-113030000D03*
D12*
X184150000Y-123190000D03*
X190500000Y-120650000D03*
D13*
X181610000Y-118110000D03*
X191770000Y-118110000D03*
D14*
X186690000Y-118110000D03*
%TD*%
D11*
%TO.C,U10*%
X185420000Y-92710000D03*
X187960000Y-92710000D03*
D12*
X184150000Y-102870000D03*
X190500000Y-100330000D03*
D13*
X181610000Y-97790000D03*
X191770000Y-97790000D03*
D14*
X186690000Y-97790000D03*
%TD*%
D11*
%TO.C,U9*%
X185420000Y-72390000D03*
X187960000Y-72390000D03*
D12*
X184150000Y-82550000D03*
X190500000Y-80010000D03*
D13*
X181610000Y-77470000D03*
X191770000Y-77470000D03*
D14*
X186690000Y-77470000D03*
%TD*%
D11*
%TO.C,U8*%
X165100000Y-133350000D03*
X167640000Y-133350000D03*
D12*
X163830000Y-143510000D03*
X170180000Y-140970000D03*
D13*
X161290000Y-138430000D03*
X171450000Y-138430000D03*
D14*
X166370000Y-138430000D03*
%TD*%
D11*
%TO.C,U7*%
X165100000Y-113030000D03*
X167640000Y-113030000D03*
D12*
X163830000Y-123190000D03*
X170180000Y-120650000D03*
D13*
X161290000Y-118110000D03*
X171450000Y-118110000D03*
D14*
X166370000Y-118110000D03*
%TD*%
D11*
%TO.C,U6*%
X165100000Y-92710000D03*
X167640000Y-92710000D03*
D12*
X163830000Y-102870000D03*
X170180000Y-100330000D03*
D13*
X161290000Y-97790000D03*
X171450000Y-97790000D03*
D14*
X166370000Y-97790000D03*
%TD*%
D11*
%TO.C,U5*%
X165100000Y-72390000D03*
X167640000Y-72390000D03*
D12*
X163830000Y-82550000D03*
X170180000Y-80010000D03*
D13*
X161290000Y-77470000D03*
X171450000Y-77470000D03*
D14*
X166370000Y-77470000D03*
%TD*%
D11*
%TO.C,U4*%
X144780000Y-133350000D03*
X147320000Y-133350000D03*
D12*
X143510000Y-143510000D03*
X149860000Y-140970000D03*
D13*
X140970000Y-138430000D03*
X151130000Y-138430000D03*
D14*
X146050000Y-138430000D03*
%TD*%
D11*
%TO.C,U3*%
X144780000Y-113030000D03*
X147320000Y-113030000D03*
D12*
X143510000Y-123190000D03*
X149860000Y-120650000D03*
D13*
X140970000Y-118110000D03*
X151130000Y-118110000D03*
D14*
X146050000Y-118110000D03*
%TD*%
D11*
%TO.C,U2*%
X144780000Y-92710000D03*
X147320000Y-92710000D03*
D12*
X143510000Y-102870000D03*
X149860000Y-100330000D03*
D13*
X140970000Y-97790000D03*
X151130000Y-97790000D03*
D14*
X146050000Y-97790000D03*
%TD*%
D11*
%TO.C,U1*%
X144780000Y-72390000D03*
X147320000Y-72390000D03*
D12*
X143510000Y-82550000D03*
X149860000Y-80010000D03*
D13*
X140970000Y-77470000D03*
X151130000Y-77470000D03*
D14*
X146050000Y-77470000D03*
%TD*%
D15*
%TO.C,U0*%
X127000000Y-69850000D03*
X127000000Y-72390000D03*
X127000000Y-74930000D03*
X127000000Y-77470000D03*
X127000000Y-80010000D03*
X127000000Y-82550000D03*
X127000000Y-85090000D03*
X127000000Y-87630000D03*
X127000000Y-90170000D03*
X127000000Y-92710000D03*
X127000000Y-95250000D03*
X127000000Y-97790000D03*
X111760000Y-97790000D03*
X111760000Y-95250000D03*
X111760000Y-92710000D03*
X111760000Y-90170000D03*
X111760000Y-87630000D03*
X111760000Y-85090000D03*
X111760000Y-82550000D03*
X111760000Y-80010000D03*
X111760000Y-77470000D03*
X111760000Y-74930000D03*
X111760000Y-72390000D03*
D16*
X111760000Y-69850000D03*
%TD*%
D17*
%TO.C,SW1*%
X114300000Y-133350000D03*
D18*
X114300000Y-135850000D03*
X114300000Y-138350000D03*
D19*
X121800000Y-130250000D03*
X121800000Y-141450000D03*
D18*
X128800000Y-133350000D03*
X128800000Y-138350000D03*
%TD*%
%TO.C,R14*%
G36*
G01*
X187590000Y-131435000D02*
X187590000Y-130185000D01*
G75*
G02*
X187840000Y-129935000I250000J0D01*
G01*
X188640000Y-129935000D01*
G75*
G02*
X188890000Y-130185000I0J-250000D01*
G01*
X188890000Y-131435000D01*
G75*
G02*
X188640000Y-131685000I-250000J0D01*
G01*
X187840000Y-131685000D01*
G75*
G02*
X187590000Y-131435000I0J250000D01*
G01*
G37*
G36*
G01*
X184490000Y-131435000D02*
X184490000Y-130185000D01*
G75*
G02*
X184740000Y-129935000I250000J0D01*
G01*
X185540000Y-129935000D01*
G75*
G02*
X185790000Y-130185000I0J-250000D01*
G01*
X185790000Y-131435000D01*
G75*
G02*
X185540000Y-131685000I-250000J0D01*
G01*
X184740000Y-131685000D01*
G75*
G02*
X184490000Y-131435000I0J250000D01*
G01*
G37*
%TD*%
%TO.C,R13*%
G36*
G01*
X167270000Y-131435000D02*
X167270000Y-130185000D01*
G75*
G02*
X167520000Y-129935000I250000J0D01*
G01*
X168320000Y-129935000D01*
G75*
G02*
X168570000Y-130185000I0J-250000D01*
G01*
X168570000Y-131435000D01*
G75*
G02*
X168320000Y-131685000I-250000J0D01*
G01*
X167520000Y-131685000D01*
G75*
G02*
X167270000Y-131435000I0J250000D01*
G01*
G37*
G36*
G01*
X164170000Y-131435000D02*
X164170000Y-130185000D01*
G75*
G02*
X164420000Y-129935000I250000J0D01*
G01*
X165220000Y-129935000D01*
G75*
G02*
X165470000Y-130185000I0J-250000D01*
G01*
X165470000Y-131435000D01*
G75*
G02*
X165220000Y-131685000I-250000J0D01*
G01*
X164420000Y-131685000D01*
G75*
G02*
X164170000Y-131435000I0J250000D01*
G01*
G37*
%TD*%
%TO.C,R12*%
G36*
G01*
X146670000Y-131435000D02*
X146670000Y-130185000D01*
G75*
G02*
X146920000Y-129935000I250000J0D01*
G01*
X147720000Y-129935000D01*
G75*
G02*
X147970000Y-130185000I0J-250000D01*
G01*
X147970000Y-131435000D01*
G75*
G02*
X147720000Y-131685000I-250000J0D01*
G01*
X146920000Y-131685000D01*
G75*
G02*
X146670000Y-131435000I0J250000D01*
G01*
G37*
G36*
G01*
X143570000Y-131435000D02*
X143570000Y-130185000D01*
G75*
G02*
X143820000Y-129935000I250000J0D01*
G01*
X144620000Y-129935000D01*
G75*
G02*
X144870000Y-130185000I0J-250000D01*
G01*
X144870000Y-131435000D01*
G75*
G02*
X144620000Y-131685000I-250000J0D01*
G01*
X143820000Y-131685000D01*
G75*
G02*
X143570000Y-131435000I0J250000D01*
G01*
G37*
%TD*%
%TO.C,R11*%
G36*
G01*
X187590000Y-111115000D02*
X187590000Y-109865000D01*
G75*
G02*
X187840000Y-109615000I250000J0D01*
G01*
X188640000Y-109615000D01*
G75*
G02*
X188890000Y-109865000I0J-250000D01*
G01*
X188890000Y-111115000D01*
G75*
G02*
X188640000Y-111365000I-250000J0D01*
G01*
X187840000Y-111365000D01*
G75*
G02*
X187590000Y-111115000I0J250000D01*
G01*
G37*
G36*
G01*
X184490000Y-111115000D02*
X184490000Y-109865000D01*
G75*
G02*
X184740000Y-109615000I250000J0D01*
G01*
X185540000Y-109615000D01*
G75*
G02*
X185790000Y-109865000I0J-250000D01*
G01*
X185790000Y-111115000D01*
G75*
G02*
X185540000Y-111365000I-250000J0D01*
G01*
X184740000Y-111365000D01*
G75*
G02*
X184490000Y-111115000I0J250000D01*
G01*
G37*
%TD*%
%TO.C,R10*%
G36*
G01*
X167270000Y-111115000D02*
X167270000Y-109865000D01*
G75*
G02*
X167520000Y-109615000I250000J0D01*
G01*
X168320000Y-109615000D01*
G75*
G02*
X168570000Y-109865000I0J-250000D01*
G01*
X168570000Y-111115000D01*
G75*
G02*
X168320000Y-111365000I-250000J0D01*
G01*
X167520000Y-111365000D01*
G75*
G02*
X167270000Y-111115000I0J250000D01*
G01*
G37*
G36*
G01*
X164170000Y-111115000D02*
X164170000Y-109865000D01*
G75*
G02*
X164420000Y-109615000I250000J0D01*
G01*
X165220000Y-109615000D01*
G75*
G02*
X165470000Y-109865000I0J-250000D01*
G01*
X165470000Y-111115000D01*
G75*
G02*
X165220000Y-111365000I-250000J0D01*
G01*
X164420000Y-111365000D01*
G75*
G02*
X164170000Y-111115000I0J250000D01*
G01*
G37*
%TD*%
%TO.C,R9*%
G36*
G01*
X146950000Y-111115000D02*
X146950000Y-109865000D01*
G75*
G02*
X147200000Y-109615000I250000J0D01*
G01*
X148000000Y-109615000D01*
G75*
G02*
X148250000Y-109865000I0J-250000D01*
G01*
X148250000Y-111115000D01*
G75*
G02*
X148000000Y-111365000I-250000J0D01*
G01*
X147200000Y-111365000D01*
G75*
G02*
X146950000Y-111115000I0J250000D01*
G01*
G37*
G36*
G01*
X143850000Y-111115000D02*
X143850000Y-109865000D01*
G75*
G02*
X144100000Y-109615000I250000J0D01*
G01*
X144900000Y-109615000D01*
G75*
G02*
X145150000Y-109865000I0J-250000D01*
G01*
X145150000Y-111115000D01*
G75*
G02*
X144900000Y-111365000I-250000J0D01*
G01*
X144100000Y-111365000D01*
G75*
G02*
X143850000Y-111115000I0J250000D01*
G01*
G37*
%TD*%
%TO.C,R8*%
G36*
G01*
X187590000Y-90795000D02*
X187590000Y-89545000D01*
G75*
G02*
X187840000Y-89295000I250000J0D01*
G01*
X188640000Y-89295000D01*
G75*
G02*
X188890000Y-89545000I0J-250000D01*
G01*
X188890000Y-90795000D01*
G75*
G02*
X188640000Y-91045000I-250000J0D01*
G01*
X187840000Y-91045000D01*
G75*
G02*
X187590000Y-90795000I0J250000D01*
G01*
G37*
G36*
G01*
X184490000Y-90795000D02*
X184490000Y-89545000D01*
G75*
G02*
X184740000Y-89295000I250000J0D01*
G01*
X185540000Y-89295000D01*
G75*
G02*
X185790000Y-89545000I0J-250000D01*
G01*
X185790000Y-90795000D01*
G75*
G02*
X185540000Y-91045000I-250000J0D01*
G01*
X184740000Y-91045000D01*
G75*
G02*
X184490000Y-90795000I0J250000D01*
G01*
G37*
%TD*%
%TO.C,R7*%
G36*
G01*
X167270000Y-90795000D02*
X167270000Y-89545000D01*
G75*
G02*
X167520000Y-89295000I250000J0D01*
G01*
X168320000Y-89295000D01*
G75*
G02*
X168570000Y-89545000I0J-250000D01*
G01*
X168570000Y-90795000D01*
G75*
G02*
X168320000Y-91045000I-250000J0D01*
G01*
X167520000Y-91045000D01*
G75*
G02*
X167270000Y-90795000I0J250000D01*
G01*
G37*
G36*
G01*
X164170000Y-90795000D02*
X164170000Y-89545000D01*
G75*
G02*
X164420000Y-89295000I250000J0D01*
G01*
X165220000Y-89295000D01*
G75*
G02*
X165470000Y-89545000I0J-250000D01*
G01*
X165470000Y-90795000D01*
G75*
G02*
X165220000Y-91045000I-250000J0D01*
G01*
X164420000Y-91045000D01*
G75*
G02*
X164170000Y-90795000I0J250000D01*
G01*
G37*
%TD*%
%TO.C,R6*%
G36*
G01*
X146950000Y-90795000D02*
X146950000Y-89545000D01*
G75*
G02*
X147200000Y-89295000I250000J0D01*
G01*
X148000000Y-89295000D01*
G75*
G02*
X148250000Y-89545000I0J-250000D01*
G01*
X148250000Y-90795000D01*
G75*
G02*
X148000000Y-91045000I-250000J0D01*
G01*
X147200000Y-91045000D01*
G75*
G02*
X146950000Y-90795000I0J250000D01*
G01*
G37*
G36*
G01*
X143850000Y-90795000D02*
X143850000Y-89545000D01*
G75*
G02*
X144100000Y-89295000I250000J0D01*
G01*
X144900000Y-89295000D01*
G75*
G02*
X145150000Y-89545000I0J-250000D01*
G01*
X145150000Y-90795000D01*
G75*
G02*
X144900000Y-91045000I-250000J0D01*
G01*
X144100000Y-91045000D01*
G75*
G02*
X143850000Y-90795000I0J250000D01*
G01*
G37*
%TD*%
%TO.C,R5*%
G36*
G01*
X187590000Y-70475000D02*
X187590000Y-69225000D01*
G75*
G02*
X187840000Y-68975000I250000J0D01*
G01*
X188640000Y-68975000D01*
G75*
G02*
X188890000Y-69225000I0J-250000D01*
G01*
X188890000Y-70475000D01*
G75*
G02*
X188640000Y-70725000I-250000J0D01*
G01*
X187840000Y-70725000D01*
G75*
G02*
X187590000Y-70475000I0J250000D01*
G01*
G37*
G36*
G01*
X184490000Y-70475000D02*
X184490000Y-69225000D01*
G75*
G02*
X184740000Y-68975000I250000J0D01*
G01*
X185540000Y-68975000D01*
G75*
G02*
X185790000Y-69225000I0J-250000D01*
G01*
X185790000Y-70475000D01*
G75*
G02*
X185540000Y-70725000I-250000J0D01*
G01*
X184740000Y-70725000D01*
G75*
G02*
X184490000Y-70475000I0J250000D01*
G01*
G37*
%TD*%
%TO.C,R4*%
G36*
G01*
X167270000Y-70475000D02*
X167270000Y-69225000D01*
G75*
G02*
X167520000Y-68975000I250000J0D01*
G01*
X168320000Y-68975000D01*
G75*
G02*
X168570000Y-69225000I0J-250000D01*
G01*
X168570000Y-70475000D01*
G75*
G02*
X168320000Y-70725000I-250000J0D01*
G01*
X167520000Y-70725000D01*
G75*
G02*
X167270000Y-70475000I0J250000D01*
G01*
G37*
G36*
G01*
X164170000Y-70475000D02*
X164170000Y-69225000D01*
G75*
G02*
X164420000Y-68975000I250000J0D01*
G01*
X165220000Y-68975000D01*
G75*
G02*
X165470000Y-69225000I0J-250000D01*
G01*
X165470000Y-70475000D01*
G75*
G02*
X165220000Y-70725000I-250000J0D01*
G01*
X164420000Y-70725000D01*
G75*
G02*
X164170000Y-70475000I0J250000D01*
G01*
G37*
%TD*%
%TO.C,R3*%
G36*
G01*
X146950000Y-70475000D02*
X146950000Y-69225000D01*
G75*
G02*
X147200000Y-68975000I250000J0D01*
G01*
X148000000Y-68975000D01*
G75*
G02*
X148250000Y-69225000I0J-250000D01*
G01*
X148250000Y-70475000D01*
G75*
G02*
X148000000Y-70725000I-250000J0D01*
G01*
X147200000Y-70725000D01*
G75*
G02*
X146950000Y-70475000I0J250000D01*
G01*
G37*
G36*
G01*
X143850000Y-70475000D02*
X143850000Y-69225000D01*
G75*
G02*
X144100000Y-68975000I250000J0D01*
G01*
X144900000Y-68975000D01*
G75*
G02*
X145150000Y-69225000I0J-250000D01*
G01*
X145150000Y-70475000D01*
G75*
G02*
X144900000Y-70725000I-250000J0D01*
G01*
X144100000Y-70725000D01*
G75*
G02*
X143850000Y-70475000I0J250000D01*
G01*
G37*
%TD*%
%TO.C,R2*%
G36*
G01*
X135265000Y-146950000D02*
X136515000Y-146950000D01*
G75*
G02*
X136765000Y-147200000I0J-250000D01*
G01*
X136765000Y-148000000D01*
G75*
G02*
X136515000Y-148250000I-250000J0D01*
G01*
X135265000Y-148250000D01*
G75*
G02*
X135015000Y-148000000I0J250000D01*
G01*
X135015000Y-147200000D01*
G75*
G02*
X135265000Y-146950000I250000J0D01*
G01*
G37*
G36*
G01*
X135265000Y-143850000D02*
X136515000Y-143850000D01*
G75*
G02*
X136765000Y-144100000I0J-250000D01*
G01*
X136765000Y-144900000D01*
G75*
G02*
X136515000Y-145150000I-250000J0D01*
G01*
X135265000Y-145150000D01*
G75*
G02*
X135015000Y-144900000I0J250000D01*
G01*
X135015000Y-144100000D01*
G75*
G02*
X135265000Y-143850000I250000J0D01*
G01*
G37*
%TD*%
%TO.C,R1*%
G36*
G01*
X132725000Y-146950000D02*
X133975000Y-146950000D01*
G75*
G02*
X134225000Y-147200000I0J-250000D01*
G01*
X134225000Y-148000000D01*
G75*
G02*
X133975000Y-148250000I-250000J0D01*
G01*
X132725000Y-148250000D01*
G75*
G02*
X132475000Y-148000000I0J250000D01*
G01*
X132475000Y-147200000D01*
G75*
G02*
X132725000Y-146950000I250000J0D01*
G01*
G37*
G36*
G01*
X132725000Y-143850000D02*
X133975000Y-143850000D01*
G75*
G02*
X134225000Y-144100000I0J-250000D01*
G01*
X134225000Y-144900000D01*
G75*
G02*
X133975000Y-145150000I-250000J0D01*
G01*
X132725000Y-145150000D01*
G75*
G02*
X132475000Y-144900000I0J250000D01*
G01*
X132475000Y-144100000D01*
G75*
G02*
X132725000Y-143850000I250000J0D01*
G01*
G37*
%TD*%
%TO.C,IC2*%
G36*
G01*
X124395000Y-116355000D02*
X124395000Y-116055000D01*
G75*
G02*
X124545000Y-115905000I150000J0D01*
G01*
X126220000Y-115905000D01*
G75*
G02*
X126370000Y-116055000I0J-150000D01*
G01*
X126370000Y-116355000D01*
G75*
G02*
X126220000Y-116505000I-150000J0D01*
G01*
X124545000Y-116505000D01*
G75*
G02*
X124395000Y-116355000I0J150000D01*
G01*
G37*
G36*
G01*
X124395000Y-117625000D02*
X124395000Y-117325000D01*
G75*
G02*
X124545000Y-117175000I150000J0D01*
G01*
X126220000Y-117175000D01*
G75*
G02*
X126370000Y-117325000I0J-150000D01*
G01*
X126370000Y-117625000D01*
G75*
G02*
X126220000Y-117775000I-150000J0D01*
G01*
X124545000Y-117775000D01*
G75*
G02*
X124395000Y-117625000I0J150000D01*
G01*
G37*
G36*
G01*
X124395000Y-118895000D02*
X124395000Y-118595000D01*
G75*
G02*
X124545000Y-118445000I150000J0D01*
G01*
X126220000Y-118445000D01*
G75*
G02*
X126370000Y-118595000I0J-150000D01*
G01*
X126370000Y-118895000D01*
G75*
G02*
X126220000Y-119045000I-150000J0D01*
G01*
X124545000Y-119045000D01*
G75*
G02*
X124395000Y-118895000I0J150000D01*
G01*
G37*
G36*
G01*
X124395000Y-120165000D02*
X124395000Y-119865000D01*
G75*
G02*
X124545000Y-119715000I150000J0D01*
G01*
X126220000Y-119715000D01*
G75*
G02*
X126370000Y-119865000I0J-150000D01*
G01*
X126370000Y-120165000D01*
G75*
G02*
X126220000Y-120315000I-150000J0D01*
G01*
X124545000Y-120315000D01*
G75*
G02*
X124395000Y-120165000I0J150000D01*
G01*
G37*
G36*
G01*
X124395000Y-121435000D02*
X124395000Y-121135000D01*
G75*
G02*
X124545000Y-120985000I150000J0D01*
G01*
X126220000Y-120985000D01*
G75*
G02*
X126370000Y-121135000I0J-150000D01*
G01*
X126370000Y-121435000D01*
G75*
G02*
X126220000Y-121585000I-150000J0D01*
G01*
X124545000Y-121585000D01*
G75*
G02*
X124395000Y-121435000I0J150000D01*
G01*
G37*
G36*
G01*
X124395000Y-122705000D02*
X124395000Y-122405000D01*
G75*
G02*
X124545000Y-122255000I150000J0D01*
G01*
X126220000Y-122255000D01*
G75*
G02*
X126370000Y-122405000I0J-150000D01*
G01*
X126370000Y-122705000D01*
G75*
G02*
X126220000Y-122855000I-150000J0D01*
G01*
X124545000Y-122855000D01*
G75*
G02*
X124395000Y-122705000I0J150000D01*
G01*
G37*
G36*
G01*
X124395000Y-123975000D02*
X124395000Y-123675000D01*
G75*
G02*
X124545000Y-123525000I150000J0D01*
G01*
X126220000Y-123525000D01*
G75*
G02*
X126370000Y-123675000I0J-150000D01*
G01*
X126370000Y-123975000D01*
G75*
G02*
X126220000Y-124125000I-150000J0D01*
G01*
X124545000Y-124125000D01*
G75*
G02*
X124395000Y-123975000I0J150000D01*
G01*
G37*
G36*
G01*
X124395000Y-125245000D02*
X124395000Y-124945000D01*
G75*
G02*
X124545000Y-124795000I150000J0D01*
G01*
X126220000Y-124795000D01*
G75*
G02*
X126370000Y-124945000I0J-150000D01*
G01*
X126370000Y-125245000D01*
G75*
G02*
X126220000Y-125395000I-150000J0D01*
G01*
X124545000Y-125395000D01*
G75*
G02*
X124395000Y-125245000I0J150000D01*
G01*
G37*
G36*
G01*
X117470000Y-125245000D02*
X117470000Y-124945000D01*
G75*
G02*
X117620000Y-124795000I150000J0D01*
G01*
X119295000Y-124795000D01*
G75*
G02*
X119445000Y-124945000I0J-150000D01*
G01*
X119445000Y-125245000D01*
G75*
G02*
X119295000Y-125395000I-150000J0D01*
G01*
X117620000Y-125395000D01*
G75*
G02*
X117470000Y-125245000I0J150000D01*
G01*
G37*
G36*
G01*
X117470000Y-123975000D02*
X117470000Y-123675000D01*
G75*
G02*
X117620000Y-123525000I150000J0D01*
G01*
X119295000Y-123525000D01*
G75*
G02*
X119445000Y-123675000I0J-150000D01*
G01*
X119445000Y-123975000D01*
G75*
G02*
X119295000Y-124125000I-150000J0D01*
G01*
X117620000Y-124125000D01*
G75*
G02*
X117470000Y-123975000I0J150000D01*
G01*
G37*
G36*
G01*
X117470000Y-122705000D02*
X117470000Y-122405000D01*
G75*
G02*
X117620000Y-122255000I150000J0D01*
G01*
X119295000Y-122255000D01*
G75*
G02*
X119445000Y-122405000I0J-150000D01*
G01*
X119445000Y-122705000D01*
G75*
G02*
X119295000Y-122855000I-150000J0D01*
G01*
X117620000Y-122855000D01*
G75*
G02*
X117470000Y-122705000I0J150000D01*
G01*
G37*
G36*
G01*
X117470000Y-121435000D02*
X117470000Y-121135000D01*
G75*
G02*
X117620000Y-120985000I150000J0D01*
G01*
X119295000Y-120985000D01*
G75*
G02*
X119445000Y-121135000I0J-150000D01*
G01*
X119445000Y-121435000D01*
G75*
G02*
X119295000Y-121585000I-150000J0D01*
G01*
X117620000Y-121585000D01*
G75*
G02*
X117470000Y-121435000I0J150000D01*
G01*
G37*
G36*
G01*
X117470000Y-120165000D02*
X117470000Y-119865000D01*
G75*
G02*
X117620000Y-119715000I150000J0D01*
G01*
X119295000Y-119715000D01*
G75*
G02*
X119445000Y-119865000I0J-150000D01*
G01*
X119445000Y-120165000D01*
G75*
G02*
X119295000Y-120315000I-150000J0D01*
G01*
X117620000Y-120315000D01*
G75*
G02*
X117470000Y-120165000I0J150000D01*
G01*
G37*
G36*
G01*
X117470000Y-118895000D02*
X117470000Y-118595000D01*
G75*
G02*
X117620000Y-118445000I150000J0D01*
G01*
X119295000Y-118445000D01*
G75*
G02*
X119445000Y-118595000I0J-150000D01*
G01*
X119445000Y-118895000D01*
G75*
G02*
X119295000Y-119045000I-150000J0D01*
G01*
X117620000Y-119045000D01*
G75*
G02*
X117470000Y-118895000I0J150000D01*
G01*
G37*
G36*
G01*
X117470000Y-117625000D02*
X117470000Y-117325000D01*
G75*
G02*
X117620000Y-117175000I150000J0D01*
G01*
X119295000Y-117175000D01*
G75*
G02*
X119445000Y-117325000I0J-150000D01*
G01*
X119445000Y-117625000D01*
G75*
G02*
X119295000Y-117775000I-150000J0D01*
G01*
X117620000Y-117775000D01*
G75*
G02*
X117470000Y-117625000I0J150000D01*
G01*
G37*
G36*
G01*
X117470000Y-116355000D02*
X117470000Y-116055000D01*
G75*
G02*
X117620000Y-115905000I150000J0D01*
G01*
X119295000Y-115905000D01*
G75*
G02*
X119445000Y-116055000I0J-150000D01*
G01*
X119445000Y-116355000D01*
G75*
G02*
X119295000Y-116505000I-150000J0D01*
G01*
X117620000Y-116505000D01*
G75*
G02*
X117470000Y-116355000I0J150000D01*
G01*
G37*
%TD*%
%TO.C,IC1*%
G36*
G01*
X124395000Y-104925000D02*
X124395000Y-104625000D01*
G75*
G02*
X124545000Y-104475000I150000J0D01*
G01*
X126220000Y-104475000D01*
G75*
G02*
X126370000Y-104625000I0J-150000D01*
G01*
X126370000Y-104925000D01*
G75*
G02*
X126220000Y-105075000I-150000J0D01*
G01*
X124545000Y-105075000D01*
G75*
G02*
X124395000Y-104925000I0J150000D01*
G01*
G37*
G36*
G01*
X124395000Y-106195000D02*
X124395000Y-105895000D01*
G75*
G02*
X124545000Y-105745000I150000J0D01*
G01*
X126220000Y-105745000D01*
G75*
G02*
X126370000Y-105895000I0J-150000D01*
G01*
X126370000Y-106195000D01*
G75*
G02*
X126220000Y-106345000I-150000J0D01*
G01*
X124545000Y-106345000D01*
G75*
G02*
X124395000Y-106195000I0J150000D01*
G01*
G37*
G36*
G01*
X124395000Y-107465000D02*
X124395000Y-107165000D01*
G75*
G02*
X124545000Y-107015000I150000J0D01*
G01*
X126220000Y-107015000D01*
G75*
G02*
X126370000Y-107165000I0J-150000D01*
G01*
X126370000Y-107465000D01*
G75*
G02*
X126220000Y-107615000I-150000J0D01*
G01*
X124545000Y-107615000D01*
G75*
G02*
X124395000Y-107465000I0J150000D01*
G01*
G37*
G36*
G01*
X124395000Y-108735000D02*
X124395000Y-108435000D01*
G75*
G02*
X124545000Y-108285000I150000J0D01*
G01*
X126220000Y-108285000D01*
G75*
G02*
X126370000Y-108435000I0J-150000D01*
G01*
X126370000Y-108735000D01*
G75*
G02*
X126220000Y-108885000I-150000J0D01*
G01*
X124545000Y-108885000D01*
G75*
G02*
X124395000Y-108735000I0J150000D01*
G01*
G37*
G36*
G01*
X124395000Y-110005000D02*
X124395000Y-109705000D01*
G75*
G02*
X124545000Y-109555000I150000J0D01*
G01*
X126220000Y-109555000D01*
G75*
G02*
X126370000Y-109705000I0J-150000D01*
G01*
X126370000Y-110005000D01*
G75*
G02*
X126220000Y-110155000I-150000J0D01*
G01*
X124545000Y-110155000D01*
G75*
G02*
X124395000Y-110005000I0J150000D01*
G01*
G37*
G36*
G01*
X124395000Y-111275000D02*
X124395000Y-110975000D01*
G75*
G02*
X124545000Y-110825000I150000J0D01*
G01*
X126220000Y-110825000D01*
G75*
G02*
X126370000Y-110975000I0J-150000D01*
G01*
X126370000Y-111275000D01*
G75*
G02*
X126220000Y-111425000I-150000J0D01*
G01*
X124545000Y-111425000D01*
G75*
G02*
X124395000Y-111275000I0J150000D01*
G01*
G37*
G36*
G01*
X124395000Y-112545000D02*
X124395000Y-112245000D01*
G75*
G02*
X124545000Y-112095000I150000J0D01*
G01*
X126220000Y-112095000D01*
G75*
G02*
X126370000Y-112245000I0J-150000D01*
G01*
X126370000Y-112545000D01*
G75*
G02*
X126220000Y-112695000I-150000J0D01*
G01*
X124545000Y-112695000D01*
G75*
G02*
X124395000Y-112545000I0J150000D01*
G01*
G37*
G36*
G01*
X124395000Y-113815000D02*
X124395000Y-113515000D01*
G75*
G02*
X124545000Y-113365000I150000J0D01*
G01*
X126220000Y-113365000D01*
G75*
G02*
X126370000Y-113515000I0J-150000D01*
G01*
X126370000Y-113815000D01*
G75*
G02*
X126220000Y-113965000I-150000J0D01*
G01*
X124545000Y-113965000D01*
G75*
G02*
X124395000Y-113815000I0J150000D01*
G01*
G37*
G36*
G01*
X117470000Y-113815000D02*
X117470000Y-113515000D01*
G75*
G02*
X117620000Y-113365000I150000J0D01*
G01*
X119295000Y-113365000D01*
G75*
G02*
X119445000Y-113515000I0J-150000D01*
G01*
X119445000Y-113815000D01*
G75*
G02*
X119295000Y-113965000I-150000J0D01*
G01*
X117620000Y-113965000D01*
G75*
G02*
X117470000Y-113815000I0J150000D01*
G01*
G37*
G36*
G01*
X117470000Y-112545000D02*
X117470000Y-112245000D01*
G75*
G02*
X117620000Y-112095000I150000J0D01*
G01*
X119295000Y-112095000D01*
G75*
G02*
X119445000Y-112245000I0J-150000D01*
G01*
X119445000Y-112545000D01*
G75*
G02*
X119295000Y-112695000I-150000J0D01*
G01*
X117620000Y-112695000D01*
G75*
G02*
X117470000Y-112545000I0J150000D01*
G01*
G37*
G36*
G01*
X117470000Y-111275000D02*
X117470000Y-110975000D01*
G75*
G02*
X117620000Y-110825000I150000J0D01*
G01*
X119295000Y-110825000D01*
G75*
G02*
X119445000Y-110975000I0J-150000D01*
G01*
X119445000Y-111275000D01*
G75*
G02*
X119295000Y-111425000I-150000J0D01*
G01*
X117620000Y-111425000D01*
G75*
G02*
X117470000Y-111275000I0J150000D01*
G01*
G37*
G36*
G01*
X117470000Y-110005000D02*
X117470000Y-109705000D01*
G75*
G02*
X117620000Y-109555000I150000J0D01*
G01*
X119295000Y-109555000D01*
G75*
G02*
X119445000Y-109705000I0J-150000D01*
G01*
X119445000Y-110005000D01*
G75*
G02*
X119295000Y-110155000I-150000J0D01*
G01*
X117620000Y-110155000D01*
G75*
G02*
X117470000Y-110005000I0J150000D01*
G01*
G37*
G36*
G01*
X117470000Y-108735000D02*
X117470000Y-108435000D01*
G75*
G02*
X117620000Y-108285000I150000J0D01*
G01*
X119295000Y-108285000D01*
G75*
G02*
X119445000Y-108435000I0J-150000D01*
G01*
X119445000Y-108735000D01*
G75*
G02*
X119295000Y-108885000I-150000J0D01*
G01*
X117620000Y-108885000D01*
G75*
G02*
X117470000Y-108735000I0J150000D01*
G01*
G37*
G36*
G01*
X117470000Y-107465000D02*
X117470000Y-107165000D01*
G75*
G02*
X117620000Y-107015000I150000J0D01*
G01*
X119295000Y-107015000D01*
G75*
G02*
X119445000Y-107165000I0J-150000D01*
G01*
X119445000Y-107465000D01*
G75*
G02*
X119295000Y-107615000I-150000J0D01*
G01*
X117620000Y-107615000D01*
G75*
G02*
X117470000Y-107465000I0J150000D01*
G01*
G37*
G36*
G01*
X117470000Y-106195000D02*
X117470000Y-105895000D01*
G75*
G02*
X117620000Y-105745000I150000J0D01*
G01*
X119295000Y-105745000D01*
G75*
G02*
X119445000Y-105895000I0J-150000D01*
G01*
X119445000Y-106195000D01*
G75*
G02*
X119295000Y-106345000I-150000J0D01*
G01*
X117620000Y-106345000D01*
G75*
G02*
X117470000Y-106195000I0J150000D01*
G01*
G37*
G36*
G01*
X117470000Y-104925000D02*
X117470000Y-104625000D01*
G75*
G02*
X117620000Y-104475000I150000J0D01*
G01*
X119295000Y-104475000D01*
G75*
G02*
X119445000Y-104625000I0J-150000D01*
G01*
X119445000Y-104925000D01*
G75*
G02*
X119295000Y-105075000I-150000J0D01*
G01*
X117620000Y-105075000D01*
G75*
G02*
X117470000Y-104925000I0J150000D01*
G01*
G37*
%TD*%
D20*
%TO.C,D14*%
X196850000Y-132490000D03*
X196850000Y-139290000D03*
%TD*%
%TO.C,D13*%
X196850000Y-113440000D03*
X196850000Y-120240000D03*
%TD*%
%TO.C,D12*%
X196850000Y-93120000D03*
X196850000Y-99920000D03*
%TD*%
%TO.C,D11*%
X196850000Y-72390000D03*
X196850000Y-79190000D03*
%TD*%
%TO.C,D10*%
X176530000Y-133350000D03*
X176530000Y-140150000D03*
%TD*%
%TO.C,D9*%
X176530000Y-113030000D03*
X176530000Y-119830000D03*
%TD*%
%TO.C,D8*%
X176530000Y-93120000D03*
X176530000Y-99920000D03*
%TD*%
%TO.C,D7*%
X176530000Y-72390000D03*
X176530000Y-79190000D03*
%TD*%
%TO.C,D6*%
X156210000Y-133350000D03*
X156210000Y-140150000D03*
%TD*%
%TO.C,D5*%
X156210000Y-113030000D03*
X156210000Y-119830000D03*
%TD*%
%TO.C,D4*%
X156210000Y-93120000D03*
X156210000Y-99920000D03*
%TD*%
%TO.C,D3*%
X156210000Y-72390000D03*
X156210000Y-79190000D03*
%TD*%
D21*
%TO.C,D2*%
X114300000Y-146050000D03*
D22*
X116840000Y-146050000D03*
%TD*%
D21*
%TO.C,D1*%
X125730000Y-146050000D03*
D22*
X128270000Y-146050000D03*
%TD*%
M02*
