M48
; DRILL file {KiCad (5.1.9)-1} date 05/08/21 01:25:40
; FORMAT={-:-/ absolute / metric / decimal}
; #@! TF.CreationDate,2021-05-08T01:25:40+09:00
; #@! TF.GenerationSoftware,Kicad,Pcbnew,(5.1.9)-1
; #@! TF.FileFunction,Plated,1,2,PTH
FMAT,2
METRIC
T1C0.400
T2C0.900
T3C0.991
T4C1.000
T5C1.100
T6C1.500
%
G90
G05
T1
X113.03Y-116.84
X113.03Y-120.65
X114.3Y-85.09
X116.84Y-86.36
X116.84Y-92.71
X116.84Y-97.79
X119.38Y-102.87
X120.65Y-107.95
X120.65Y-109.22
X120.65Y-110.49
X120.65Y-111.76
X121.92Y-106.68
X121.92Y-111.76
X123.19Y-105.41
X123.19Y-118.11
X123.19Y-119.38
X123.19Y-121.92
X123.19Y-123.19
X123.19Y-124.46
X124.46Y-85.09
X124.46Y-148.59
X125.73Y-100.33
X128.27Y-106.68
X128.27Y-107.95
X128.27Y-110.49
X128.27Y-111.76
X129.54Y-116.84
X129.54Y-119.38
X129.54Y-121.92
X130.81Y-81.28
X130.81Y-83.82
X130.81Y-86.36
X130.81Y-88.9
X130.81Y-91.44
X130.81Y-93.98
X130.81Y-146.05
X132.08Y-119.38
X133.35Y-125.73
X137.16Y-106.68
X138.43Y-93.98
X139.7Y-87.63
X139.7Y-91.44
X139.7Y-106.68
X139.7Y-109.22
X139.7Y-114.3
X139.7Y-128.27
X140.97Y-93.98
X140.97Y-100.33
X140.97Y-115.57
X143.51Y-87.63
X144.78Y-128.27
X146.05Y-69.85
X146.05Y-85.09
X146.05Y-90.17
X146.05Y-102.87
X146.05Y-110.49
X146.05Y-123.19
X146.05Y-130.81
X152.4Y-82.55
X156.21Y-127.0
X160.02Y-74.93
X160.02Y-85.09
X161.29Y-93.98
X161.29Y-114.3
X161.29Y-134.62
X162.56Y-92.71
X162.56Y-96.52
X162.56Y-113.03
X162.56Y-116.84
X162.56Y-133.35
X162.56Y-137.16
X163.83Y-93.98
X163.83Y-114.3
X163.83Y-134.62
X166.37Y-69.85
X166.37Y-90.17
X166.37Y-110.49
X166.37Y-130.81
X182.88Y-92.71
X182.88Y-96.52
X182.88Y-113.03
X182.88Y-116.84
X182.88Y-133.35
X182.88Y-137.16
X186.69Y-69.85
X186.69Y-90.17
X186.69Y-110.49
X186.69Y-130.81
T2
X114.3Y-146.05
X116.84Y-146.05
X125.73Y-146.05
X128.27Y-146.05
T3
X144.78Y-72.39
X144.78Y-92.71
X144.78Y-113.03
X144.78Y-133.35
X147.32Y-72.39
X147.32Y-92.71
X147.32Y-113.03
X147.32Y-133.35
X165.1Y-72.39
X165.1Y-92.71
X165.1Y-113.03
X165.1Y-133.35
X167.64Y-72.39
X167.64Y-92.71
X167.64Y-113.03
X167.64Y-133.35
X185.42Y-72.39
X185.42Y-92.71
X185.42Y-113.03
X185.42Y-133.35
X187.96Y-72.39
X187.96Y-92.71
X187.96Y-113.03
X187.96Y-133.35
T4
X114.3Y-133.35
X114.3Y-135.85
X114.3Y-138.35
X128.8Y-133.35
X128.8Y-138.35
T5
X111.76Y-69.85
X111.76Y-72.39
X111.76Y-74.93
X111.76Y-77.47
X111.76Y-80.01
X111.76Y-82.55
X111.76Y-85.09
X111.76Y-87.63
X111.76Y-90.17
X111.76Y-92.71
X111.76Y-95.25
X111.76Y-97.79
X127.0Y-69.85
X127.0Y-72.39
X127.0Y-74.93
X127.0Y-77.47
X127.0Y-80.01
X127.0Y-82.55
X127.0Y-85.09
X127.0Y-87.63
X127.0Y-90.17
X127.0Y-92.71
X127.0Y-95.25
X127.0Y-97.79
T6
X143.51Y-82.55
X143.51Y-102.87
X143.51Y-123.19
X143.51Y-143.51
X149.86Y-80.01
X149.86Y-100.33
X149.86Y-120.65
X149.86Y-140.97
X163.83Y-82.55
X163.83Y-102.87
X163.83Y-123.19
X163.83Y-143.51
X170.18Y-80.01
X170.18Y-100.33
X170.18Y-120.65
X170.18Y-140.97
X184.15Y-82.55
X184.15Y-102.87
X184.15Y-123.19
X184.15Y-143.51
X190.5Y-80.01
X190.5Y-100.33
X190.5Y-120.65
X190.5Y-140.97
T6
X121.15Y-130.25G85X122.45Y-130.25
G05
X121.15Y-141.45G85X122.45Y-141.45
G05
T0
M30
