M48
; DRILL file {KiCad (5.1.9)-1} date 05/08/21 01:25:40
; FORMAT={-:-/ absolute / metric / decimal}
; #@! TF.CreationDate,2021-05-08T01:25:40+09:00
; #@! TF.GenerationSoftware,Kicad,Pcbnew,(5.1.9)-1
; #@! TF.FileFunction,NonPlated,1,2,NPTH
FMAT,2
METRIC
T1C1.750
T2C3.200
T3C4.000
%
G90
G05
T1
X140.97Y-77.47
X140.97Y-97.79
X140.97Y-118.11
X140.97Y-138.43
X151.13Y-77.47
X151.13Y-97.79
X151.13Y-118.11
X151.13Y-138.43
X161.29Y-77.47
X161.29Y-97.79
X161.29Y-118.11
X161.29Y-138.43
X171.45Y-77.47
X171.45Y-97.79
X171.45Y-118.11
X171.45Y-138.43
X181.61Y-77.47
X181.61Y-97.79
X181.61Y-118.11
X181.61Y-138.43
X191.77Y-77.47
X191.77Y-97.79
X191.77Y-118.11
X191.77Y-138.43
T2
X110.49Y-64.77
X110.49Y-151.13
X196.85Y-64.77
X196.85Y-151.13
T3
X146.05Y-77.47
X146.05Y-97.79
X146.05Y-118.11
X146.05Y-138.43
X166.37Y-77.47
X166.37Y-97.79
X166.37Y-118.11
X166.37Y-138.43
X186.69Y-77.47
X186.69Y-97.79
X186.69Y-118.11
X186.69Y-138.43
T0
M30
